<?xml version="1.0" encoding="utf-8"?>
<!-- Generator: Adobe Illustrator 23.0.0, SVG Export Plug-In . SVG Version: 6.00 Build 0)  -->
<svg version="1.1" id="Camada_1" xmlns="http://www.w3.org/2000/svg" xmlns:xlink="http://www.w3.org/1999/xlink" x="0px" y="0px"
	 viewBox="0 0 600 600" style="enable-background:new 0 0 600 600;" xml:space="preserve">
<style type="text/css">
	.st0{opacity:0.37;enable-background:new    ;}
	.st1{fill:#003A30;}
	.st2{fill:#006B5E;}
	.st3{opacity:0.5;fill:#003A30;enable-background:new    ;}
	.st4{fill:url(#Caminho_423_1_);}
	.st5{fill:#F0F6FF;}
	.st6{fill:#FCD1C5;}
	.st7{fill:url(#Caminho_431_1_);}
	.st8{fill:#C4CCD6;}
	.st9{fill:url(#Caminho_434_1_);}
	.st10{fill:#E2B1A6;}
	.st11{opacity:0.5;fill:#380031;enable-background:new    ;}
	.st12{fill:url(#Caminho_442_1_);}
	.st13{fill:url(#Caminho_445_1_);}
	.st14{fill:url(#Caminho_446_1_);}
	.st15{fill:url(#Caminho_449_1_);}
	.st16{fill:url(#Caminho_452_1_);}
	.st17{fill:url(#Caminho_459_1_);}
	.st18{fill:#1E262D;}
	.st19{opacity:0.4;fill:#003A30;enable-background:new    ;}
	.st20{opacity:0.5;fill:#013329;enable-background:new    ;}
	.st21{opacity:0.5;}
	.st22{fill:#380031;}
</style>
<g id="Grupo_419" transform="translate(-1062 -219)">
	<path id="Caminho_468" class="st0" d="M1437.91,642.77l0.01-0.05c-0.61,0.02-1.2,0.01-1.8,0.02c-0.49,0-0.98-0.02-1.47-0.02
		c-0.74,0-1.47,0.02-2.21,0.03c-48.27-0.84-71.26-34.04-71.26-34.04l-0.01,0.01c-11.68-16.51-39.75-28.14-72.55-28.14
		c-43.27,0-78.35,20.25-78.35,45.24c0,19.87,22.2,36.74,53.05,42.81l-0.02,0.01l0.16,0.01c3.88,0.76,7.9,1.35,12.04,1.75
		c39.46,8.09,87.01,38.54,98.54,46.2c0.68,0.47,1.37,0.94,2.08,1.39l0.54,0.37h0.01c14.33,9.1,35.01,14.82,58,14.82
		c43.27,0,78.35-20.25,78.35-45.24C1512.99,663.6,1479.66,643.76,1437.91,642.77z"/>
	<g id="Grupo_418" transform="translate(1086.666 219)">
		<g id="Grupo_412" transform="translate(108.934 40.461)">
			<g id="Grupo_411">
				<path id="Caminho_419" class="st1" d="M211.92,399.14c0,0-1.68,1.97-3.42,4.3c-1.75,2.33-6.65,5.58-8.71,7.02
					c-2.06,1.45-11.57,9.58-13.66,17.64c-2.1,8.1,4.66,9.18,11.6,7.76s13.44-8.72,15.33-11.35c1.89-2.63,8.42-8.57,16.86-13.54
					c8.41-4.95,3.31-11.59,3.31-11.59L211.92,399.14z"/>
				<path id="Caminho_420" class="st1" d="M275.11,416.43c0.99,2.66,1.64,5.44,1.93,8.26c0.48,4.67,1.23,14.84,1.49,17.83
					c0.59,6.09-0.81,12.21-4,17.43c-4.5,7.11-6.84,9.93-13.01,7.12c-6.17-2.81-6.13-14.68-5.11-20.75
					c0.97-6.92,1.55-13.9,1.75-20.88c0.01-1.5,0.15-3,0.43-4.48L275.11,416.43z"/>
				<path id="Caminho_421" class="st2" d="M192.93,270.8c0,0,0.6,48.48,10.8,74.92c4.88,17.09,7.65,34.7,8.25,52.46
					c0,0-1.8,5.01,0.69,9.09s18.35,7.86,20.94-5.59c2.57-13.32,1.51-37.92-1.33-48.05c-2.82-10.06,0.93-37.4,0.93-37.4
					s4.19,2.94,9.79,22.58c5.68,19.92,9.84,27.59,11.82,33.17c1.66,4.69,3.43,29.78,3.35,48.07c-0.02,6.14,5.03,10.78,10.23,9.28
					c2.55-0.58,4.75-2.2,6.05-4.47c3.6-7.03,4.2-42.85,3.07-54.09c-1.12-11.14-5.83-46.25-5.44-56.93
					c0.39-10.6,2.25-19.15-0.11-29.59c-2.35-10.36-66.55-33.1-66.55-33.1L192.93,270.8z"/>
				<path id="Caminho_422" class="st3" d="M272.09,313.84c0.39-10.6,2.25-19.15-0.11-29.59c-0.88-3.9-10.59-9.58-22.32-15.13
					c-19.67-1.94-44.59-4.19-46.31-3.91c-3.09,0.89-6.11,2.02-9.02,3.38l-1.4,2.21c0,0,0.04,2.9,0.24,7.65
					c4.59,1.5,13.46-0.05,13.46-0.05c1.22,3.37,8.87,15.39,18.49,20.61c9.65,5.24,37.89,3.44,39.54,5.44
					c1.65,2,2.35,29.02,2.22,32.5s3.08,25.62,6.08,45.49c3,19.83-0.7,44.31-0.82,45.1c0.97-0.7,1.77-1.61,2.33-2.67
					c3.6-7.03,4.2-42.85,3.07-54.09C276.41,359.63,271.7,324.53,272.09,313.84z"/>
				
					<radialGradient id="Caminho_423_1_" cx="1107.0564" cy="30.07" r="43.2708" gradientTransform="matrix(1.7 0 0 -1.7 -642.0518 564.6055)" gradientUnits="userSpaceOnUse">
					<stop  offset="0" style="stop-color:#006B5E"/>
					<stop  offset="0.357" style="stop-color:#006356"/>
					<stop  offset="1" style="stop-color:#005B4E"/>
				</radialGradient>
				<path id="Caminho_423" class="st4" d="M215.2,123.56c0,0-13.53,3.16-18.08,4.25c-0.76,0.19-1.38,0.73-1.67,1.47
					c-1.36,3.41-4.81,14.08-2.53,29.81c2.84,19.6,1.69,32.97,1.69,32.97l-6.95,35.51c0,0-8.8,34.74-8.1,35.7
					s18.88,16.12,24.66,13.98s3.91-5.67,3.91-5.67s4.51,25.93,25.32,25.68c20.82-0.25,37.81-0.18,41.19-9.34
					c3.35-9.1-1.75-46.7-5.57-61.3c-3.78-14.44-12.54-42.76-12.54-42.76l28.47-33.44l-24.89-19.32c0,0-5.96-11.1-8.36-12.5
					c-2.4-1.4-3.64-0.22-3.64-0.22L215.2,123.56z"/>
				<path id="Caminho_424" class="st5" d="M251.23,118.3c0,0,5.04,6.16-2.06,14.52c-4.4,5.17-11.99,16.4-18.51,28.16
					c-4.1,7.4-7.91,11.37-10.09,17.78c0,0-0.28-7.62-0.53-19.29c-0.24-10.92-0.34-22.17,0.13-24.99
					C221.15,128.71,245.72,115.52,251.23,118.3z"/>
				<path id="Caminho_425" class="st6" d="M232.67,136.92c0,0-2.56,1.64-3.45,1.51c-0.89-0.14-3.72-2.98-3.72-2.98
					s-7.1-0.13-7.87-3.26c-0.5-2.66-1.16-5.29-1.97-7.87c-0.71-1.61-3.71-9.32-3.71-12.43c0-3.12,0.15-8.64-1.15-11.55
					c-1.3-2.92-2.83-31.68,24.6-30.88c27.45,0.8,19.23,29.69,19.23,29.69s2.04,0.87,0.85,4.64c-1.19,3.77-1.47,4.17-2.07,6.05
					c-0.36,1.79-1.3,3.42-2.67,4.62l-0.43,3.51c0.72,3.68-0.02,7.49-2.06,10.64C244.78,133.89,232.67,136.92,232.67,136.92z"/>
				<path id="Caminho_426" class="st2" d="M196.34,128.14c0,0-3,0.45-13.16,25.77c-5.76,14.34-14.6,29.37-16.66,40.26
					c-2.08,10.98-1.35,22.82,0.71,23.66c1.98,0.81,38,15.24,49.35,19.83c0.55,0.21,1.17-0.08,1.38-0.63
					c0.03-0.08,0.05-0.16,0.06-0.24l3.19-18.65l-22.32-9.16c0,0-4.19-5.49-8.15-7.54c0,0,4.58-8.65,4.32-11.01
					c-0.25-2.35,0.72-26.4-1.72-36.06C190.91,144.76,196.34,128.14,196.34,128.14z"/>
				<path id="Caminho_427" class="st6" d="M208.52,196.12c-1.22-0.89-2.49-1.71-3.8-2.47c-0.75-0.31-4.83-1.78-5.61-2.14
					c-1.38-0.18-2.78-0.15-4.16,0.06c-0.44,0.05-0.82,0.32-1.03,0.71c-0.97,1.84-3.68,7.22-3.41,9.28c0,0,7.36,4.95,8.17,7.17
					l1.18,0.27C199.88,209,204.97,197.74,208.52,196.12z"/>
				<path id="Caminho_428" class="st3" d="M269.08,226.6c-0.91-3.49-2.12-7.8-3.42-12.33l-45.42,20.76c0,0,13.72,18.09,37.85,16.92
					c5.32-0.33,10.45-2.08,14.86-5.07C271.76,238.85,270.35,231.46,269.08,226.6z"/>
				<path id="Caminho_429" class="st2" d="M285.01,150.4c0,0-11.64,1.66-20.86,17.23c-6.27,10.97-11.67,22.42-16.15,34.23
					l-0.32,2.09c-0.49,4.37-4.42,7.51-8.79,7.02c-0.82-0.09-1.63-0.31-2.39-0.65c-10.18-4.8-25.2-12.04-27.98-14.2
					c-6.07,4.11-10.26,10.47-11.64,17.67c-2.09,10.01-1.59,10.03-1.59,10.03s40.47,20.22,56.2,20.02s34.47-54.47,36.37-65.42
					C289.77,167.58,291.77,153.41,285.01,150.4z"/>
				<path id="Caminho_430" class="st6" d="M236.15,210.15c0,0,1.39-1.37,3.18-2.98c1.79-1.61,4.65-8.23,5.14-8.81
					c0.49-0.58,6.48-5.45,9.39-5.54c2.9-0.09,0.78,3.34,0.11,3.82c-0.67,0.48-3.49,1.97-3.49,1.97s-2.91,2.59-3.24,2.97
					c-0.33,0.38,8.14-0.62,9.49,0.26c1.07,0.87,1.24,2.45,0.36,3.53c-0.07,0.09-0.15,0.17-0.24,0.25c-0.49,0.36-1.07,0.57-1.67,0.6
					c0.57,1.52-0.1,3.23-1.55,3.96c-2.54,1.26-3.13,0.56-3.13,0.56s-0.18,4.69-4.41,3.76L236.15,210.15z"/>
				
					<radialGradient id="Caminho_431_1_" cx="414.0968" cy="271.4608" r="46.2957" gradientTransform="matrix(0.9 0 0 -0.9 -314.5508 286.8432)" gradientUnits="userSpaceOnUse">
					<stop  offset="0" style="stop-color:#F9636B"/>
					<stop  offset="1" style="stop-color:#B6246E"/>
				</radialGradient>
				<path id="Caminho_431" class="st7" d="M210.28,85.51c0,0-3.71,11.62,5.84,8.3c9.52-3.31,18.11-8.83,21.1-6.73
					c2.28,1.6,2.2,6.52,2.03,8.78c-0.06,0.77,0.15,1.54,0.58,2.18l2.85,4.17c0.32,0.47,0.51,1.02,0.56,1.59l0.23,2.91
					c0.05,0.73,0.63,1.3,1.36,1.35l0.66,0.04c0.73,0.04,1.38-0.48,1.49-1.21l0.7-4.28c0,0,2.2-5.73,6.97-3.48
					c0,0,3.12-4.32,1.97-13.49c-1.15-9.11-5.29-18.51-22.96-20.01C215.99,64.15,210.28,85.51,210.28,85.51z"/>
				<path id="Caminho_432" class="st8" d="M237.71,147.56l-2.73-2.18c-1.44,1.25-2.62,2.77-3.49,4.46c-0.98,2.3,0.02,9.65,0.02,9.65
					l-0.83,1.49l-1.03-1.95l-0.87-8.68c0,0,0.93-6.38,1.01-6.54c0.09-0.16,5.25,0.56,5.25,0.56
					C236.12,145.26,237.02,146.34,237.71,147.56z"/>
				<path id="Caminho_433" class="st8" d="M224.6,139c0,0-2.91,0.2-4.22,1.32c0,0,3.05,0.15,3.53,0.21
					C224.4,140.59,224.6,139,224.6,139z"/>
				
					<radialGradient id="Caminho_434_1_" cx="2227.6797" cy="-245.2945" r="12.9978" gradientTransform="matrix(2.954 0 0 -2.954 -3330.9583 370.3853)" gradientUnits="userSpaceOnUse">
					<stop  offset="0" style="stop-color:#F9636B"/>
					<stop  offset="1" style="stop-color:#B6246E"/>
				</radialGradient>
				<path id="Caminho_434" class="st9" d="M235.03,144.38l-4.89-4.7c0,0-7.64-1.68-7.01,0.53c0.63,2.21,0.12,7.22,0.6,9.22
					c0.03,0.09,0.06,0.18,0.11,0.26c-0.4,1.89-1.02,3.74-1.83,5.49c-1,1.72-2.03,3.65-2.03,3.65l0.05,24.7
					c0,0,8.75-18.77,10.63-22.53c0,0-0.3-8.92-1.12-10.6C230.74,146.42,235.03,144.38,235.03,144.38z"/>
				<path id="Caminho_435" class="st10" d="M246.86,113.91c-5.51,16.57-21.37,21.53-21.37,21.53s2.84,2.84,3.72,2.98
					c0.88,0.14,3.45-1.51,3.45-1.51s12.11-3.03,15.57-8.3c2.05-3.14,2.79-6.96,2.06-10.64l0.43-3.51
					C249.44,115.02,247.95,114.8,246.86,113.91z"/>
				<path id="Caminho_436" class="st3" d="M259.91,133.34c0,0-2.14,7.92-2.42,8.21c-0.28,0.3-5.62-0.34-5.62-0.34l2.64,5.06
					c0,0-26.86,30.08-32.52,46.55c10.44-16.06,22.21-31.21,35.19-45.3l-3.22-4.94l5.49,1.1L259.91,133.34z"/>
				<path id="Caminho_437" class="st3" d="M216.07,126.39l-1.42,1.66l1.65,1.59l-4.96,4.58c0,0-1.74,32.62,4.26,54.7
					c0,0-8.21-20.26-6.07-55.58l5.37-3.72l-1.74-1.76L216.07,126.39z"/>
				<path id="Caminho_438" class="st3" d="M233.21,316.23c0.07,0.05,0.14,0.11,0.2,0.17l-7.41-8.66c3.41,5.29-0.55,29.78-0.97,35.44
					c-0.42,5.69,4.01,17.52,5.68,31.51c1.69,14.1-1.74,34.5-1.75,34.56c2.53-1.77,4.22-4.51,4.64-7.56
					c2.57-13.32,1.51-37.92-1.33-48.05C229.46,343.57,233.21,316.23,233.21,316.23z"/>
			</g>
			<path id="Caminho_439" class="st11" d="M254.63,99.14c0,0,3.11-4.3,1.97-13.45c0.15,2.07-0.75,2.59-0.75,2.59l-14.34,12.22
				l1.17,1.71c0.32,0.47,0.51,1.02,0.56,1.59l0.22,2.91c0.05,0.73,0.63,1.3,1.36,1.35l0.65,0.04c0.73,0.04,1.38-0.48,1.49-1.21
				l0.7-4.28C247.66,102.62,249.86,96.9,254.63,99.14z"/>
		</g>
		<g id="Grupo_416" transform="translate(0 0)">
			<g id="Grupo_415">
				<g id="Grupo_414">
					<path id="Caminho_440" class="st1" d="M239.3,406.73c0,0,2.35,5.14,1.75,8.46c-0.6,3.32-7.89,14.92-10.01,21.38
						c-2.14,6.49-13.23,16.16-19.47,16.14c-6.24-0.02-11.99-2.87-8.99-10.55c2.98-7.63,5.51-10.49,7.97-13.99
						c2.47-3.49,7.23-13.45,7.92-17.54C219.14,406.57,239.3,406.73,239.3,406.73z"/>
					<path id="Caminho_441" class="st1" d="M209.01,375.99c0,0,1,6.61,0.1,8.98c-0.9,2.37-2.83,4.54-8.31,6.26
						c-5.48,1.72-10.54,2.32-19.63,8.23c-9.14,5.94-21.58,8.43-25.24,1.93c-3.64-6.46,9.36-16.12,14.11-18.65
						c4.75-2.53,12.06-3.8,16.03-7.64c3.97-3.85,4.62-2.93,4.62-2.93L209.01,375.99z"/>
					
						<radialGradient id="Caminho_442_1_" cx="-1684.99" cy="-78.7648" r="33.936" gradientTransform="matrix(-2.137 0 0 -2.137 -7061.3833 713.4791)" gradientUnits="userSpaceOnUse">
						<stop  offset="0" style="stop-color:#006B5E"/>
						<stop  offset="0.357" style="stop-color:#006356"/>
						<stop  offset="1" style="stop-color:#005B4E"/>
					</radialGradient>
					<path id="Caminho_442" class="st12" d="M240.93,263.66c0,0-4,41.59-2.57,56.37c1.45,15.01,10.67,42.99,7.9,62.07
						c-2.82,19.45-6.25,27.41-6.25,27.41s-12.14,13.73-21.53,1.44c0,0,3.89-7.87,3.29-28.14c-0.3-10.23-0.51-16.08-0.64-19.36
						c-0.09-2.43-0.73-4.81-1.89-6.95c-5.17-9.45-9.51-19.34-12.95-29.55c0,0,2.06,27.77,1.91,40.4c-0.01,1.97,0.15,3.94,0.49,5.88
						c0.35,1.78,0.41,3.61,0.16,5.4c-0.63,3.31-11.46,15.78-20.26,5.76c0,0-3.4-2.5-2.63-10.3c0.51-5.11-0.62-16.35-1.61-25.34
						c-0.74-6.85-2.63-13.52-5.6-19.73c-2.38-4.94-4.55-15.03-5.95-19.66c-2.76-9.18-12.78-52.57-12.84-62.31
						c-0.06-9.64,11.37-16.55,11.37-16.55s25.99,13.36,25.47,14.83c-0.52,1.47,32.83,16.21,32.83,16.21L240.93,263.66z"/>
					<path id="Caminho_443" class="st3" d="M171.34,230.5c0,0,25.99,13.36,25.47,14.83c-0.52,1.47,32.83,16.21,32.83,16.21
						l11.29,2.12c0,0-4,41.59-2.57,56.37c1.45,15.01,10.67,42.99,7.9,62.07c-2.82,19.45-6.25,27.41-6.25,27.41
						c-1.46,1.57-3.12,2.94-4.94,4.08c1.57-5.74,6.67-25.81,6.35-43.18c-0.37-20.08-8.63-52.04-9.12-62.22
						c-0.26-5.51-4.16-9.88-8.95-10.09c-7.7-0.34-18.99-1.69-26.7-6.34c2.42,10.88,9.63,35.19,9.63,35.19s2.21,29.7,1.89,41.62
						c-0.03,1.21,0.07,2.41,0.32,3.6c0.5,2.11,0.63,4.3,0.36,6.45c-0.23,1.2-1.79,3.58-4.1,5.67c-0.24-12.44-2.44-43.56-3.25-50.66
						c-0.9-7.88-8.54-39.17-8.54-39.17c-4.01-3.36-5.95-11.29-6.69-15.25c-3.36-7.77-3.82-15.08-10.16-15.22
						c-0.52-0.01-8.48,10.26-13.62,2.15c-1.48-8.62-2.52-15.87-2.54-19.09C159.91,237.41,171.34,230.5,171.34,230.5z"/>
					<path id="Caminho_444" class="st10" d="M161.25,248.47l1.36,5.19c0,0,2.26,0.34,5.37-3.35c1.8-2.01,1.89-5.02,0.23-7.15
						l-5.83,1.35L161.25,248.47z"/>
					
						<radialGradient id="Caminho_445_1_" cx="2580.4646" cy="-258.6962" r="11.5672" gradientTransform="matrix(4.304 0 0 -4.304 -7241.0391 148.6961)" gradientUnits="userSpaceOnUse">
						<stop  offset="0" style="stop-color:#006B5E"/>
						<stop  offset="0.357" style="stop-color:#006356"/>
						<stop  offset="1" style="stop-color:#005B4E"/>
					</radialGradient>
					<path id="Caminho_445" class="st13" d="M182.43,112.54c0,0-1.56-0.1-5.12,1.83c-3.56,1.93-8.13,7.03-10.8,19.32
						c-2.72,12.46-13.92,45.18-14.85,51.31c-0.9,5.87,0.52,45.73,3.89,62.92c0.15,1.14,1.2,1.93,2.33,1.78
						c0.13-0.02,0.25-0.05,0.37-0.09c3.14-1.12,8.9-3.39,12.18-6.02c4.64-3.73,4.07-32.75,4.07-32.75l-2.76-36.6l5.23-29.45
						c0,0,7.22-22.92,6.21-24.4C182.16,118.91,182.43,112.54,182.43,112.54z"/>
					
						<radialGradient id="Caminho_446_1_" cx="1090.5521" cy="136.0547" r="38.6925" gradientTransform="matrix(1.87 0 0 -1.87 -829.2993 737.3081)" gradientUnits="userSpaceOnUse">
						<stop  offset="0" style="stop-color:#006B5E"/>
						<stop  offset="0.357" style="stop-color:#006356"/>
						<stop  offset="1" style="stop-color:#005B4E"/>
					</radialGradient>
					<path id="Caminho_446" class="st14" d="M260.15,147.79c0,0,5.09,9.7-1.26,22.67c-6.45,13.16-22.18,40.38-22.18,40.38
						s5.55,38.68,4.91,48.28c-0.64,9.7-7.4,21.01-9.12,24.66c-1.72,3.65-15.97,12.91-32.52,4.09
						c-16.39-8.74-17.75-20.62-19.29-33.44c-1.52-12.65-1.02-11.98-1.02-11.98s-7.81,25.25-12.36,20.49
						c-1.94-2.03-2.02-8.24-1.42-14.77c1.3-13.6,1.76-27.27,1.37-40.92c-0.02-0.49-0.02-0.92-0.02-1.25
						c0.06-4.28-0.29-42.96,0.9-53.23c1.18-10.15-0.15-26.2,5.11-32.73c2.47-3.15,5.6-5.71,9.18-7.49l7.33-0.36
						c0,0,42.65-3.56,46.39,1.97c2.02,2.85,3.73,5.91,5.09,9.12C241.25,123.27,254.35,137.09,260.15,147.79L260.15,147.79z"/>
					<path id="Caminho_447" class="st5" d="M225.8,107.93c1.15,0.7,2.03,1.77,2.5,3.03c0.73,2.05,2.87,7.66,4.03,9.23
						c0,0-18.89,18.29-25.99,27.73c-7.18,9.55-9.45,17.39-9.45,17.39l-9.86-11.95l3.09-3.49l1.7-7.78l2.95-8.79l2.11-8.65
						l23.45-13.53L225.8,107.93z"/>
					<path id="Caminho_448" class="st8" d="M207.1,132.68c2.25,1.58,4.02,3.74,5.15,6.25c0,0-3.62-2.63-4.79-2.87
						c-1.21,1.16-2.3,2.43-3.26,3.81c-0.51,1.09,0,11.06,0,11.06l-1.34,2.05l-1.57,0.18c0,0-0.15-7.16-0.35-7.52
						c-0.27-2.16-0.39-4.33-0.35-6.5c0.11-0.45,5.15-5.31,5.15-5.31l1.76-1.2L207.1,132.68z"/>
					
						<radialGradient id="Caminho_449_1_" cx="-1767.869" cy="78.1452" r="79.2485" gradientTransform="matrix(-2.267 0 0 -2.267 -7580.3877 808.8461)" gradientUnits="userSpaceOnUse">
						<stop  offset="0" style="stop-color:#F9636B"/>
						<stop  offset="1" style="stop-color:#B6246E"/>
					</radialGradient>
					<path id="Caminho_449" class="st15" d="M197.14,130.52c0,0,2.45-1.14,3.99-0.78c1.53,0.36,5.78,2.51,6.42,3.35
						c0.64,0.84-0.18,1.94-2.57,3.83c-2.39,1.89-2.69,3.06-2.69,3.06s1.39,8.1,0.57,13c0,0-5.11,9.27-6.2,13.75
						c-1.09,4.51-5.56-14.41-5.56-14.41c0.65-2.55,1.42-5.06,2.32-7.53c0.74-1.5,3.55-9.58,2.82-10.98
						C195.51,132.41,197.14,130.52,197.14,130.52z"/>
					<path id="Caminho_450" class="st3" d="M239.87,124.45l-3.17,6.85L231,131l0.72,6.04c0,0-23.46,16.02-32.49,32.88l0.56,1.81
						c0,0,10.58-17.99,33.3-32.73l0.76-0.48l-1.19-5.84l5.07,0.97L239.87,124.45z"/>
					<path id="Caminho_451" class="st6" d="M201.29,126.29c0.64,1.75,2.2,2.99,4.05,3.23c3.02,0.24,19.3-6.19,21.65-15.86
						c0,0-1.01-4.62-1.11-5.45c0.7-0.62,1.18-1.46,1.35-2.38c0.48-1.93,1.11-3.83,1.89-5.67c0.39-1.01,1.21-3.02,0.72-4.47
						c0,0,4.63-26.44-9.76-30.94c-14.31-4.48-24.77-0.14-29.54,14.76c0,0-1.16,4.04-2.1,7.03c-0.6,1.9-0.64,3.93-0.11,5.85
						c0.31,0.96,0.47,1.97,0.46,2.99c-0.65,3.72-0.76,7.51-0.35,11.26c0,0-1.18,2.86,0.74,3.9c1.91,1.04,1.47,9.55,1.47,9.55
						l5.39,5.64C196.03,125.72,197.19,126.98,201.29,126.29z"/>
					
						<radialGradient id="Caminho_452_1_" cx="470.7516" cy="351.5353" r="57.652" gradientTransform="matrix(0.957 0 0 -0.957 -313.5544 392.4221)" gradientUnits="userSpaceOnUse">
						<stop  offset="0" style="stop-color:#F9636B"/>
						<stop  offset="1" style="stop-color:#B6246E"/>
					</radialGradient>
					<path id="Caminho_452" class="st16" d="M229.96,97.15c0,0,10.15-23.59-6.48-33.07c-12.98-7.4-29.08-3.83-33.84,13.01
						c0,0-1.21,4.4,4.62,6.48s13.35,4.42,16.77,4.34c3.42-0.08,5.15,1.86,5.21,6.4c0.04,2.57,0.35,3.6,0.62,4.01
						c0.26,0.42,0.38,0.92,0.35,1.41l-0.03,0.87c0,0.59,0.35,1.11,0.9,1.32c0.83,0.26,1.76,0.02,1.78-0.18v-0.01
						c0.32-2.79,1.85-5.3,4.18-6.87C226.6,93.2,229.56,92.36,229.96,97.15z"/>
					<path id="Caminho_453" class="st11" d="M193.43,144.79c0.74-1.5,3.55-9.58,2.82-10.98s0.9-3.28,0.9-3.28s2.45-1.14,3.99-0.78
						c0.16,0.04,0.35,0.1,0.55,0.17l-0.01,0.09c0,0-2.05,3.7-2.5,4.6c-0.45,0.9-2.38,10.38-3.42,12.51
						c-1.18,3.13-2.19,6.32-3.03,9.56l-0.61-0.34c-0.6-2.28-1.01-4.01-1.01-4.01C191.75,149.77,192.52,147.26,193.43,144.79z"/>
					<path id="Caminho_454" class="st10" d="M195.05,120.58c0,0,2.55,3.91,2.75,5.83c-0.65-0.04-1.27-0.28-1.77-0.69l-2.14-2.24
						C194.49,121.97,195.05,120.58,195.05,120.58z"/>
					<path id="Caminho_455" class="st6" d="M177.61,156.84c0,0-2.92-4.68-2.75-8.65c0.19-2.89,0.6-5.76,1.22-8.59
						c0,0-2.17,0.06-2.02-3.2c0.16-3.27,1.1-6.34,2.19-7.17c0.63-0.49,1.43-0.7,2.22-0.6c0,0,0.82-2.66,3.12-2.25
						c0.21-1.27,0.96-2.38,2.06-3.04c0.98-0.71,2.35-0.49,3.07,0.49c0.05,0.07,0.09,0.14,0.14,0.21c0,0,0.81-2.83,1.59-3.32
						c0.69-0.34,1.43-0.55,2.2-0.62c0,0,3.75-0.51,4.41,0.5c0.67,1.01,2.47,12.02,2.32,12.58c-0.15,0.56-1.06,6.24-1.63,8.04
						c-0.57,1.8-4.92,6.44-5.62,8.66c-0.7,2.22-7.65,9.4-7.73,9.4S177.61,156.84,177.61,156.84z"/>
					<path id="Caminho_456" class="st3" d="M179.67,242.45c0,0,0.49-40.19,6.94-57.73l-3.32,5.64c0,0-5.45,23.32-4.56,54.93
						L179.67,242.45z"/>
					<path id="Caminho_457" class="st3" d="M181.12,179.79c0,0,28.36,26.46,28.49,26.8c0.12,0.34,41.41-26.58,41.41-26.58l1.3,3
						c-7.06,13.03-15.62,27.82-15.62,27.82s0.66,4.63,1.51,11.09c0,0-20.58,23.15-33.52,20.18c-11.14-2.56-22.8-41.04-25.7-51.24
						c-0.46-1.64-0.42-3.38,0.11-5L181.12,179.79z"/>
					<path id="Caminho_458" class="st10" d="M175.96,152.93c4.07-2.47,11.36-3.17,11.36-3.17l-8.57,7.67
						c-0.66-0.34-1.14-0.59-1.14-0.59c-0.72-1.21-1.33-2.47-1.82-3.79C175.85,153.01,175.9,152.97,175.96,152.93z"/>
					
						<radialGradient id="Caminho_459_1_" cx="-445.6699" cy="172.2624" r="411.2247" gradientTransform="matrix(-0.871 0 0 -0.871 -1880.0809 362.8621)" gradientUnits="userSpaceOnUse">
						<stop  offset="0" style="stop-color:#006B5E"/>
						<stop  offset="0.357" style="stop-color:#006356"/>
						<stop  offset="1" style="stop-color:#005B4E"/>
					</radialGradient>
					<path id="Caminho_459" class="st17" d="M227.99,163.68c4.25-5.61,10.11-10.01,15.8-13.81c5.1-3.41,10.67-6,13.75-3.84
						c6.66,4.67,5.4,13.29,2.43,21.98c-3,8.77-31.28,58.9-51.55,57.78c0,0-14.56-15.77-21.19-28.04
						c-5.52-10.22-14.48-27.76-17.12-32.94c-0.45-0.89-0.26-1.98,0.47-2.66c3.92-3.63,15.92-14.32,19.44-12.54
						c0,0,8.04,21.06,16.19,31.53l6.41,6.32c2.89-5.47,6.06-10.78,9.52-15.92C223.64,169.45,225.9,166.44,227.99,163.68z"/>
					<path id="Caminho_460" class="st10" d="M205.34,129.52c-1.85-0.24-3.41-1.48-4.05-3.23c0,0,16.75-6.81,18.48-17.15
						c0,0,0.18,10.9-4.24,16.67C211.09,128.28,206.75,129.64,205.34,129.52z"/>
					<g id="Grupo_413" transform="translate(48.687 236.311)">
						<path id="Caminho_461" class="st18" d="M157.61,90.62l0.02,0.31C157.6,90.83,157.6,90.73,157.61,90.62z"/>
						<path id="Caminho_462" class="st19" d="M173.38,178.06c-1.38-0.93-2.59-2.09-3.58-3.43c0,0,3.89-7.87,3.29-28.14
							c-0.3-10.21-0.51-16.05-0.64-19.34c-0.09-2.45-0.74-4.84-1.9-6.99c-4.84-8.87-8.96-18.11-12.3-27.65
							c-0.02-0.08-0.04-0.17-0.06-0.25c3,5.65,16.61,23.15,18.46,36.66C178.48,142.26,174.69,169.52,173.38,178.06z"/>
						<path id="Caminho_463" class="st18" d="M158.19,92.26c-0.03-0.06-0.06-0.11-0.09-0.18c-0.17-0.49-0.34-0.97-0.5-1.47
							C157.67,90.26,157.88,90.9,158.19,92.26z"/>
					</g>
					<path id="Caminho_464" class="st20" d="M172.45,160.44c0,0.01,25.7,58.26,37.66,60.61c11.99,2.36,43.69-40.76,43.69-40.76
						l-0.04,0.15c-10.05,17.62-30.07,46.19-45.34,45.35c0,0-14.56-15.77-21.19-28.04c-5.52-10.22-14.48-27.76-17.12-32.94
						c-0.45-0.89-0.26-1.98,0.47-2.67C171.08,161.68,171.72,161.1,172.45,160.44z"/>
					<path id="Caminho_465" class="st3" d="M212.62,187.45c1.74,2.85,3.26,5.82,4.53,8.91l-3.94-10.02L212.62,187.45z"/>
				</g>
			</g>
			<path id="Caminho_466" class="st11" d="M229.96,97.15c1.87-4.7,2.91-9.68,3.06-14.74c-0.12,1.4-0.85,2.69-1.98,3.53
				c-2.84,1.89-14.72,10.07-14.72,10.07c0.01,0.81,0.19,1.6,0.55,2.32c0.26,0.42,0.38,0.92,0.35,1.41l-0.03,0.87
				c0,0.59,0.35,1.11,0.9,1.32c0.83,0.26,1.76,0.02,1.78-0.18v-0.01c0.33-2.79,1.85-5.3,4.18-6.86
				C226.59,93.2,229.56,92.36,229.96,97.15z"/>
		</g>
		<g id="Grupo_417" transform="translate(189.923 58.214)" class="st21">
			<path id="Caminho_467" class="st22" d="M175.6,67.9l-0.01-0.07c0,0.03,0.01,0.06,0.01,0.09L175.6,67.9z"/>
		</g>
	</g>
</g>
</svg>
