<?xml version="1.0" encoding="utf-8"?>
<!-- Generator: Adobe Illustrator 23.0.0, SVG Export Plug-In . SVG Version: 6.00 Build 0)  -->
<svg version="1.1" id="Camada_1" xmlns="http://www.w3.org/2000/svg" xmlns:xlink="http://www.w3.org/1999/xlink" x="0px" y="0px"
	 viewBox="0 0 600 600" style="enable-background:new 0 0 600 600;" xml:space="preserve">
<style type="text/css">
	.st0{fill:#DAE5E8;}
	.st1{opacity:0.5;enable-background:new    ;}
	.st2{fill:#00AA91;}
	.st3{fill:#007D6B;}
	.st4{fill:#006B5E;}
	.st5{fill:#60EAD6;}
	.st6{fill:#005B4E;}
	.st7{fill:#00C4AC;}
	.st8{fill:#FFFFFF;}
	.st9{opacity:0.32;fill:#333842;enable-background:new    ;}
	.st10{fill:#00AA95;}
	.st11{fill:#009688;}
	.st12{fill:#586376;}
	.st13{fill:#C0C9CC;}
	.st14{fill:#DAE4E8;}
	.st15{fill:#333842;}
	.st16{fill:#FCFBF9;}
</style>
<g id="Grupo_444" transform="translate(-71.527 -56.326)">
	<ellipse id="Elipse_3" class="st0" cx="373.83" cy="639.67" rx="119.07" ry="6.1"/>
	<g id="Grupo_421" transform="translate(73.73 135.784)">
		
			<rect id="Retângulo_197" x="35.74" y="92.48" transform="matrix(0.925 -0.38 0.38 0.925 -35.2371 50.4637)" class="st1" width="148.93" height="44"/>
		
			<rect id="Retângulo_198" x="35.74" y="90.82" transform="matrix(0.925 -0.38 0.38 0.925 -34.6059 50.3391)" class="st2" width="148.93" height="44"/>
		
			<rect id="Retângulo_199" x="39.92" y="112" transform="matrix(0.925 -0.38 0.38 0.925 -38.1586 52.6926)" class="st3" width="148.93" height="22"/>
		
			<rect id="Retângulo_200" x="44.92" y="136.52" transform="matrix(0.925 -0.38 0.38 0.925 -48.3621 30.3755)" class="st4" width="15.68" height="2.34"/>
		
			<rect id="Retângulo_201" x="44.03" y="134.36" transform="matrix(0.925 -0.38 0.38 0.925 -47.6084 29.876)" class="st5" width="15.68" height="2.34"/>
		
			<rect id="Retângulo_202" x="160.72" y="88.91" transform="matrix(0.925 -0.38 0.38 0.925 -21.5858 70.8097)" class="st6" width="15.68" height="2.34"/>
		
			<rect id="Retângulo_203" x="159.83" y="86.75" transform="matrix(0.925 -0.38 0.38 0.925 -20.832 70.3109)" class="st7" width="15.68" height="2.34"/>
		<circle id="Elipse_4" class="st3" cx="47.61" cy="125.78" r="6.42"/>
		
			<rect id="Retângulo_204" x="55.26" y="111.19" transform="matrix(0.925 -0.38 0.38 0.925 -39.6261 34.4684)" class="st3" width="24.47" height="12.83"/>
		
			<rect id="Retângulo_205" x="27.69" y="92.41" transform="matrix(0.925 -0.38 0.38 0.925 -27.7679 45.8131)" class="st8" width="148.93" height="1.66"/>
	</g>
	<g id="Grupo_422" transform="translate(318.502 56.326)">
		
			<rect id="Retângulo_206" x="216.03" y="23.94" transform="matrix(0.9491 -0.315 0.315 0.9491 -17.7187 88.1763)" class="st9" width="95.82" height="149.94"/>
		
			<rect id="Retângulo_207" x="212.75" y="25.02" transform="matrix(0.9491 -0.315 0.315 0.9491 -18.2283 87.1986)" class="st10" width="95.82" height="149.94"/>
		<path id="Caminho_471" class="st11" d="M282.51,13.75l47.23,142.3l-90.94,30.19L282.51,13.75z"/>
		
			<rect id="Retângulo_208" x="215.13" y="39.79" transform="matrix(0.9491 -0.315 0.315 0.9491 -25.1442 73.9368)" class="st8" width="2.08" height="149.94"/>
		
			<ellipse id="Elipse_5" transform="matrix(0.9491 -0.315 0.315 0.9491 -8.7327 73.712)" class="st4" cx="223.68" cy="63.87" rx="10.17" ry="20.27"/>
	</g>
	<g id="Grupo_425" transform="translate(71.527 61.661)">
		<path id="Caminho_472" class="st9" d="M120.68,51.46c1.45-16.33-5.86-30.25-18.19-33.06c-13.47-3.07-25.11,5.42-30.81,21.89
			l-12.06-2.75l-28.08,90.23l87.38,19.92l0.13,0.03l13.79-93.49L120.68,51.46z M75.45,50.97c-0.06,0.27-0.15,0.54-0.27,0.79
			c-0.06,0.13-0.13,0.24-0.2,0.36c-0.07,0.12-0.12,0.24-0.2,0.34c-0.07,0.11-0.16,0.21-0.25,0.31c-0.09,0.1-0.16,0.2-0.26,0.29
			c-0.09,0.09-0.19,0.18-0.29,0.26c-0.11,0.09-0.21,0.16-0.33,0.25c-0.12,0.08-0.21,0.14-0.31,0.2c-0.11,0.06-0.25,0.14-0.38,0.19
			c-0.11,0.05-0.21,0.09-0.33,0.13c-0.15,0.05-0.3,0.09-0.45,0.13c-0.11,0.02-0.21,0.05-0.32,0.07c-0.18,0.02-0.35,0.04-0.53,0.04
			c-0.09,0-0.18,0.01-0.27,0.01c-0.28-0.01-0.55-0.04-0.82-0.1c-0.27-0.06-0.54-0.15-0.79-0.27c-0.08-0.04-0.16-0.09-0.24-0.13
			c-0.16-0.08-0.31-0.17-0.46-0.27c-0.09-0.06-0.16-0.13-0.26-0.2c-0.12-0.1-0.24-0.2-0.35-0.31c-0.08-0.08-0.16-0.16-0.24-0.26
			c-0.09-0.11-0.18-0.22-0.26-0.34c-0.07-0.1-0.14-0.2-0.2-0.31c-0.06-0.11-0.13-0.24-0.18-0.36c-0.06-0.12-0.11-0.23-0.15-0.36
			s-0.07-0.25-0.11-0.38c-0.03-0.13-0.06-0.26-0.08-0.39c-0.02-0.13-0.02-0.26-0.03-0.39c-0.01-0.13-0.03-0.27-0.02-0.41l0,0
			c0.05-1.9,1.34-3.54,3.18-4.03c-0.07,0.28-0.14,0.56-0.21,0.85c-0.01,0.07-0.02,0.14-0.03,0.21l0,0c-0.14,1.14,0.68,2.16,1.81,2.3
			c1.05,0.12,2.02-0.56,2.26-1.59c0.06-0.28,0.13-0.55,0.2-0.82C75.27,47.83,75.79,49.44,75.45,50.97L75.45,50.97z M101.57,22.45
			c9.94,2.27,15.99,14.21,15.01,28.08l-40.84-9.31C80.75,26.98,90.29,19.88,101.57,22.45z M120.76,62.16L120.76,62.16
			c-0.06,0.13-0.13,0.24-0.2,0.36s-0.12,0.24-0.2,0.34c-0.07,0.11-0.16,0.21-0.25,0.31c-0.08,0.1-0.17,0.2-0.26,0.29
			c-0.09,0.09-0.19,0.17-0.29,0.26c-0.1,0.08-0.21,0.16-0.32,0.25c-0.11,0.08-0.21,0.14-0.31,0.2c-0.12,0.07-0.25,0.14-0.38,0.19
			c-0.11,0.05-0.21,0.09-0.33,0.13c-0.15,0.05-0.29,0.09-0.44,0.12c-0.11,0.02-0.21,0.05-0.32,0.07c-0.18,0.03-0.35,0.04-0.53,0.04
			c-0.09,0-0.18,0.01-0.27,0.01c-0.28-0.01-0.55-0.04-0.82-0.1c-0.27-0.06-0.54-0.15-0.79-0.27c-0.08-0.04-0.16-0.09-0.24-0.13
			c-0.16-0.08-0.31-0.17-0.46-0.27c-0.09-0.06-0.16-0.13-0.26-0.2c-0.12-0.1-0.24-0.2-0.35-0.3c-0.08-0.08-0.16-0.16-0.23-0.26
			c-0.09-0.11-0.18-0.22-0.26-0.34c-0.07-0.1-0.14-0.2-0.2-0.31c-0.06-0.11-0.13-0.24-0.18-0.36c-0.06-0.12-0.11-0.24-0.15-0.36
			s-0.07-0.25-0.11-0.38s-0.07-0.26-0.09-0.39c-0.02-0.14-0.02-0.26-0.03-0.39c-0.01-0.13-0.03-0.27-0.02-0.41
			c0.05-1.96,1.42-3.63,3.33-4.07c-0.06,0.31-0.12,0.62-0.19,0.92c-0.29,1.11,0.38,2.24,1.49,2.53c1.11,0.29,2.24-0.38,2.53-1.49
			c0.01-0.04,0.02-0.07,0.03-0.11c0.06-0.25,0.1-0.49,0.16-0.75c1.1,1.05,1.56,2.6,1.23,4.08C120.97,61.64,120.88,61.9,120.76,62.16
			L120.76,62.16z"/>
		<path id="Caminho_473" class="st0" d="M132.83,52.57L59.62,35.88l-28.08,90.24l87.51,19.94L132.83,52.57z M70.25,52.59
			c-2.34-0.53-3.8-2.86-3.27-5.2c0.53-2.34,2.86-3.8,5.2-3.27c2.34,0.53,3.8,2.86,3.27,5.2c0,0,0,0,0,0
			C74.91,51.65,72.58,53.12,70.25,52.59z M115.83,62.97c-2.34-0.53-3.8-2.86-3.27-5.2c0.53-2.34,2.86-3.8,5.2-3.27
			c2.34,0.53,3.8,2.86,3.27,5.2c0,0,0,0,0,0C120.5,62.04,118.17,63.5,115.83,62.97C115.83,62.97,115.83,62.97,115.83,62.97
			L115.83,62.97z"/>
		<g id="Grupo_423" transform="translate(0 11.993)">
			<path id="Caminho_474" class="st8" d="M59.25,25.51l73.22,16.69l-13.55,91.84l0.13,0.03l13.79-93.49L59.62,23.89l-28.08,90.24
				l0.13,0.03L59.25,25.51z"/>
			<path id="Caminho_475" class="st8" d="M115.46,52.6c2.33,0.54,4.65-0.91,5.19-3.24c0.07-0.28,0.1-0.57,0.11-0.86
				c-0.97,2.19-3.53,3.19-5.72,2.22c-1.62-0.71-2.65-2.34-2.59-4.11c-0.11,0.25-0.2,0.52-0.27,0.79c-0.54,2.34,0.92,4.67,3.26,5.2
				C115.45,52.6,115.45,52.6,115.46,52.6z"/>
			<path id="Caminho_476" class="st8" d="M69.88,42.21c2.33,0.54,4.66-0.91,5.2-3.24c0.06-0.28,0.1-0.57,0.11-0.85
				c-0.96,2.19-3.52,3.19-5.72,2.23c-1.63-0.71-2.65-2.35-2.59-4.12c-0.98,2.18,0,4.75,2.19,5.72
				C69.32,42.06,69.6,42.15,69.88,42.21z"/>
		</g>
		<g id="Grupo_424" transform="translate(23.22 0)">
			<path id="Caminho_477" class="st12" d="M93.93,57.94c-1.12-0.25-1.82-1.37-1.56-2.48c3.76-16.5-2.53-32.05-14.03-34.67
				c-12.85-2.93-23.46,6.71-27.66,25.16c-0.22,1.12-1.32,1.85-2.44,1.63c-1.12-0.22-1.85-1.32-1.63-2.44
				c0.01-0.04,0.02-0.07,0.03-0.11c4.7-20.63,17.51-31.74,32.63-28.29c13.96,3.18,21.49,20.6,17.15,39.64
				C96.16,57.49,95.05,58.19,93.93,57.94z"/>
		</g>
		<path id="Caminho_478" class="st8" d="M102.12,18.36c13.62,3.1,21.12,19.76,17.44,38.26c0.03-0.08,0.06-0.16,0.08-0.24
			c4.34-19.04-3.2-36.46-17.15-39.64c-15.12-3.45-27.93,7.66-32.63,28.29c-0.01,0.07-0.02,0.14-0.03,0.21
			C74.79,25.52,87.35,14.99,102.12,18.36z"/>
		<path id="Caminho_479" class="st13" d="M80.37,113.39c7.85-1.32,23.28-10.32,27.06-17.99c2.69-5.45,4.96-13.05-2.95-18.48
			c-6.74-4.61-16.55,3.28-16.55,3.28s-4.02-11.66-13.49-10.13c-8.43,1.36-10.73,9.3-10.67,15.37C63.86,94,74.03,108.96,80.37,113.39
			z"/>
	</g>
	<g id="Grupo_428" transform="translate(261.784 129.233)">
		<path id="Caminho_480" class="st9" d="M259.22,99.55l-12.03-3.3c2.16-16.26-4.54-30.48-16.73-33.82
			c-13.33-3.65-25.32,4.32-31.73,20.53l-11.93-3.27l-31.98,88.93l0.13,0.03l0,0l86.43,23.7L259.22,99.55z M239.26,107.33
			c-0.07-0.11-0.13-0.21-0.18-0.32c-0.06-0.11-0.12-0.24-0.16-0.37c-0.05-0.13-0.1-0.24-0.13-0.36c-0.04-0.12-0.06-0.25-0.09-0.38
			c-0.03-0.13-0.06-0.26-0.07-0.4s-0.01-0.26-0.01-0.4c0-0.13-0.01-0.27,0-0.41l0,0c0.14-1.96,1.58-3.57,3.51-3.92
			c-0.08,0.3-0.15,0.61-0.23,0.91c-0.3,1.11,0.35,2.25,1.45,2.55c1.11,0.3,2.25-0.35,2.55-1.45l0,0c0.07-0.25,0.13-0.49,0.19-0.74
			c1.05,1.1,1.45,2.66,1.05,4.13c-0.08,0.27-0.18,0.53-0.3,0.78c-0.06,0.12-0.14,0.23-0.21,0.35c-0.07,0.12-0.14,0.23-0.21,0.33
			c-0.08,0.1-0.17,0.2-0.27,0.3c-0.09,0.1-0.17,0.2-0.27,0.28s-0.2,0.16-0.3,0.24c-0.11,0.08-0.22,0.16-0.33,0.23
			c-0.11,0.07-0.21,0.13-0.33,0.18c-0.12,0.06-0.26,0.12-0.39,0.18c-0.11,0.04-0.22,0.08-0.33,0.12c-0.15,0.04-0.3,0.08-0.45,0.11
			c-0.11,0.02-0.21,0.04-0.32,0.06c-0.18,0.02-0.35,0.02-0.53,0.02c-0.09,0-0.18,0-0.28,0c-0.56-0.04-1.1-0.19-1.6-0.44
			c-0.08-0.04-0.16-0.09-0.24-0.14c-0.15-0.09-0.3-0.18-0.45-0.29c-0.09-0.07-0.16-0.14-0.25-0.21c-0.12-0.1-0.23-0.21-0.33-0.32
			c-0.08-0.09-0.15-0.18-0.23-0.27C239.45,107.58,239.33,107.45,239.26,107.33z M196.63,89.28c-0.02,0.07-0.02,0.14-0.04,0.21l0,0
			c-0.19,1.13,0.56,2.2,1.69,2.39c1.05,0.18,2.07-0.47,2.35-1.5c0.08-0.27,0.15-0.54,0.23-0.81c1.13,1.1,1.57,2.72,1.15,4.24
			c-0.08,0.27-0.18,0.53-0.3,0.78l0,0c-0.06,0.12-0.14,0.24-0.21,0.35c-0.07,0.12-0.14,0.23-0.21,0.33c-0.08,0.1-0.18,0.2-0.27,0.3
			c-0.09,0.1-0.17,0.19-0.27,0.28c-0.1,0.09-0.2,0.16-0.3,0.24c-0.1,0.08-0.22,0.16-0.33,0.23c-0.11,0.07-0.21,0.13-0.33,0.18
			c-0.13,0.06-0.26,0.12-0.39,0.17c-0.11,0.04-0.22,0.08-0.33,0.12c-0.15,0.04-0.3,0.08-0.45,0.11c-0.11,0.02-0.21,0.04-0.32,0.06
			c-0.18,0.02-0.35,0.02-0.53,0.02c-0.09,0-0.18,0-0.28,0c-0.56-0.04-1.1-0.19-1.6-0.44c-0.08-0.04-0.16-0.09-0.24-0.14
			c-0.15-0.09-0.3-0.18-0.45-0.29c-0.09-0.07-0.16-0.14-0.25-0.21c-0.12-0.1-0.23-0.21-0.33-0.32c-0.08-0.09-0.15-0.18-0.22-0.27
			c-0.09-0.11-0.17-0.23-0.25-0.35c-0.07-0.1-0.13-0.21-0.18-0.32c-0.06-0.11-0.12-0.24-0.16-0.37c-0.05-0.13-0.1-0.24-0.14-0.36
			c-0.04-0.12-0.06-0.26-0.09-0.38c-0.03-0.13-0.06-0.26-0.07-0.4c-0.01-0.13-0.01-0.26-0.01-0.4s-0.01-0.27,0-0.41l0,0
			c0.13-1.9,1.5-3.49,3.36-3.89C196.79,88.72,196.71,89,196.63,89.28z M229.36,66.44c9.84,2.7,15.36,14.9,13.77,28.7l-40.39-11.07
			C208.37,70.06,218.21,63.38,229.36,66.44L229.36,66.44z"/>
		<path id="Caminho_481" class="st2" d="M259.22,97.89L186.8,78.04l-31.98,88.93l86.55,23.73L259.22,97.89z M196.69,95.19
			c-2.31-0.63-3.68-3.02-3.04-5.34c0.63-2.31,3.02-3.68,5.34-3.04c2.31,0.63,3.68,3.02,3.04,5.34c0,0,0,0,0,0
			C201.39,94.46,199,95.82,196.69,95.19L196.69,95.19z M241.78,107.55c-2.31-0.63-3.68-3.02-3.04-5.34
			c0.63-2.31,3.02-3.68,5.34-3.04c2.31,0.63,3.68,3.02,3.04,5.34c0,0,0,0,0,0C246.48,106.82,244.09,108.18,241.78,107.55
			C241.78,107.55,241.78,107.55,241.78,107.55L241.78,107.55z"/>
		<g id="Grupo_426" transform="translate(0 11.005)">
			<path id="Caminho_482" class="st8" d="M186.36,68.63l72.42,19.86l-17.53,91.17l0.13,0.03l17.85-92.8L186.8,67.03l-31.98,88.93
				l0.13,0.03L186.36,68.63z"/>
			<path id="Caminho_483" class="st8" d="M241.34,98.15c2.3,0.64,4.69-0.71,5.33-3.01c0.08-0.28,0.13-0.56,0.15-0.85
				c-1.06,2.15-3.67,3.03-5.82,1.96c-1.58-0.78-2.54-2.45-2.4-4.22c-0.12,0.25-0.22,0.51-0.3,0.78
				C237.66,95.12,239.02,97.51,241.34,98.15z"/>
			<path id="Caminho_484" class="st8" d="M196.25,85.78c2.31,0.63,4.7-0.73,5.34-3.04c0.07-0.27,0.12-0.55,0.14-0.82
				c-1.06,2.15-3.66,3.03-5.81,1.97c-1.59-0.78-2.54-2.46-2.4-4.22c-0.12,0.25-0.22,0.51-0.3,0.78
				C192.57,82.76,193.93,85.15,196.25,85.78C196.25,85.78,196.25,85.78,196.25,85.78z"/>
		</g>
		<g id="Grupo_427" transform="translate(25.327)">
			<path id="Caminho_485" class="st12" d="M218,102.58c-1.11-0.3-1.76-1.44-1.46-2.55c0,0,0,0,0,0c4.47-16.31-1.14-32.13-12.5-35.24
				c-12.72-3.49-23.73,5.68-28.73,23.94c-0.3,1.11-1.44,1.76-2.55,1.45c-1.11-0.3-1.76-1.44-1.45-2.55l0,0
				c5.59-20.41,18.88-30.94,33.83-26.84c13.81,3.79,20.57,21.51,15.41,40.35C220.24,102.22,219.1,102.87,218,102.58z"/>
		</g>
		<path id="Caminho_486" class="st8" d="M230.02,62.38c13.47,3.69,20.24,20.66,15.76,38.98c0.04-0.08,0.07-0.16,0.09-0.24
			c5.16-18.84-1.61-36.56-15.41-40.35c-14.96-4.1-28.24,6.44-33.83,26.84c-0.02,0.07-0.03,0.14-0.04,0.21
			C202.4,68.33,215.41,58.37,230.02,62.38z"/>
		<circle id="Elipse_6" class="st4" cx="210.74" cy="133.96" r="22.64"/>
	</g>
	<g id="Grupo_429" transform="translate(187.772 113.1)">
		<path id="Caminho_487" class="st1" d="M235.6,74.52l-2.32-9.69c-0.4-1.66-2.1-2.93-4.87-3.82c-0.87-0.27-1.75-0.5-2.64-0.67
			c-0.96-0.19-2-0.35-3.12-0.49c-1.12-0.13-2.31-0.23-3.58-0.3c-1.27-0.07-2.6-0.11-4.01-0.12c-2.8-0.01-5.87,0.09-9.16,0.33
			c-3.29,0.24-6.79,0.58-10.47,1.06c-1.84,0.24-3.72,0.5-5.65,0.8c-0.96,0.15-1.93,0.3-2.91,0.47c-5.88,0.99-12.08,2.24-18.46,3.77
			c-9.81,2.32-19.48,5.22-28.95,8.68c-0.85,0.32-1.68,0.63-2.5,0.95c-1.64,0.64-3.22,1.27-4.73,1.92c-3.04,1.28-5.82,2.58-8.31,3.86
			c-1.62,0.83-3.1,1.66-4.47,2.48c-0.4,0.24-0.79,0.48-1.17,0.72c-1.54,0.96-3.01,2.03-4.41,3.2c-0.41,0.35-0.79,0.7-1.14,1.04
			c-2.06,2.05-3,3.96-2.61,5.61l0,0l2.32,9.69c1.81,7.58,30.85,7.12,64.85-1.02S237.41,82.1,235.6,74.52z"/>
		
			<ellipse id="Elipse_7" transform="matrix(0.9725 -0.2329 0.2329 0.9725 -13.4259 42.1382)" class="st14" cx="171.71" cy="77.92" rx="63.31" ry="14.11"/>
		<path id="Caminho_488" class="st13" d="M112.47,102.35c1.81,7.58,30.85,7.13,64.85-1.02s60.09-20.89,58.28-28.47l-2.32-9.69
			C235.09,70.75,209,83.5,175,91.64s-63.04,8.6-64.85,1.02L112.47,102.35z"/>
		<path id="Caminho_489" class="st8" d="M168.81,65.81c32.78-7.85,60.94-8.55,64.54-1.8c0.01-0.28-0.02-0.56-0.08-0.84
			c-1.81-7.58-30.85-7.13-64.85,1.02c-34,8.14-60.09,20.89-58.28,28.47c0.07,0.27,0.17,0.53,0.31,0.78
			C110.61,85.79,136.03,73.66,168.81,65.81z"/>
	</g>
	<g id="Grupo_430" transform="translate(130.572 183.956)">
		<path id="Caminho_490" class="st9" d="M179.43,136.07c-0.06-0.5-0.14-0.99-0.25-1.47c-0.51-2.26-1.56-4.37-3.06-6.14
			c-0.3-0.35-0.61-0.69-0.95-1.02c-1.72-1.67-3.83-2.89-6.13-3.54l-32.02-9.05c7.8,0,18.65-2.19,19.72-4.94
			c0.33-0.9-0.12-1.9-1.01-2.26c-0.32-0.19-0.66-0.33-1.01-0.43c-5.22-1.48-19.32,4-22.28,5.19c-2.65-2.17-16.18-13.11-22.05-14.77
			c-0.46-0.14-0.93-0.22-1.41-0.23c-1.41-0.02-1.71,0.78-1.77,1.12c-0.12,0.68-0.38,2.08,9.65,8.16c3.06,1.85,6.26,3.63,9.09,5.04
			l-30.44-8.6c-1.4-0.4-2.85-0.58-4.3-0.54l-0.11,0.01c-4.2,0.16-8.12,2.12-10.76,5.39c-0.29,0.37-0.57,0.75-0.82,1.14
			c-0.79,1.22-1.39,2.55-1.79,3.95l-2.04,7.23c-0.51-0.13-1.03,0.18-1.16,0.7c-0.12,0.49,0.16,1,0.64,1.15l-2.04,7.23
			c-2.16,7.65,2.29,15.61,9.94,17.77c0,0,0,0,0,0l35.84,10.13l0,0c-0.13,0.51,0.17,1.03,0.68,1.17c0.5,0.13,1.01-0.16,1.16-0.65l0,0
			l35.84,10.13c7.65,2.16,15.61-2.29,17.77-9.94c0,0,0,0,0,0l2.04-7.22c0.51,0.13,1.03-0.18,1.16-0.7c0.12-0.49-0.16-1-0.64-1.15
			l2.04-7.23C179.51,139.85,179.66,137.95,179.43,136.07L179.43,136.07z M109.78,99.45l0.1,0.03c3.56,1.01,10.52,5.97,15.62,9.87
			C119.95,106.56,114.68,103.25,109.78,99.45L109.78,99.45z M136.32,112.96c5.74-2.11,14.53-4.86,17.89-3.91
			c0.19,0.05,0.38,0.13,0.55,0.23c0.04,0.02,0.08,0.05,0.11,0.07C153.58,110.81,143.71,113.16,136.32,112.96L136.32,112.96z"/>
		<path id="Retângulo_209" class="st0" d="M157.32,165.9l-73.77-20.86c-7.58-2.14-11.98-10.02-9.84-17.6l4.68-16.56
			c2.14-7.58,10.02-11.98,17.6-9.84l73.77,20.86c7.58,2.14,11.98,10.02,9.84,17.6l-4.68,16.56
			C172.78,163.64,164.9,168.04,157.32,165.9z"/>
		<path id="Caminho_491" class="st13" d="M83.66,145.09l73.53,20.78c7.65,2.16,15.61-2.29,17.77-9.94c0,0,0,0,0,0L73.71,127.31
			C71.55,134.97,76,142.92,83.66,145.09z"/>
		<path id="Caminho_492" class="st2" d="M75.09,118.91c-0.14,0.51,0.15,1.04,0.66,1.18l49.7,14.04l-5.96,21.09
			c-0.13,0.51,0.17,1.03,0.68,1.17c0.5,0.13,1.01-0.16,1.16-0.65l5.96-21.09L177,148.7c0.51,0.15,1.04-0.13,1.19-0.64
			c0.15-0.51-0.13-1.04-0.64-1.19c-0.01,0-0.02-0.01-0.03-0.01l-49.7-14.05l5.73-20.26c7.34,1.08,22.5-1.41,23.78-4.69
			c0.33-0.9-0.12-1.9-1.01-2.26c-0.32-0.19-0.66-0.33-1.01-0.43c-5.22-1.48-19.32,4-22.28,5.19c-2.65-2.18-16.18-13.11-22.05-14.77
			c-0.46-0.14-0.93-0.22-1.41-0.23c-1.41-0.02-1.71,0.78-1.77,1.12c-0.12,0.68-0.38,2.08,9.65,8.16c4.56,2.82,9.33,5.3,14.26,7.42
			l-5.72,20.25l-49.7-14.05C75.76,118.11,75.24,118.4,75.09,118.91z M126.06,107.31c-5.55-2.79-10.81-6.1-15.72-9.9l0.1,0.03
			C114.01,98.44,120.97,103.41,126.06,107.31z M136.89,110.93c5.74-2.11,14.53-4.86,17.89-3.91c0.19,0.05,0.38,0.13,0.55,0.23
			c0.04,0.02,0.08,0.05,0.11,0.07C154.16,108.77,144.28,111.11,136.89,110.93L136.89,110.93z"/>
	</g>
	<g id="Grupo_431" transform="translate(197.054 151.848)">
		
			<rect id="Retângulo_210" x="126.03" y="93.32" transform="matrix(0.948 -0.3182 0.3182 0.948 -35.3232 65.7521)" class="st9" width="115.15" height="95.36"/>
		
			<rect id="Retângulo_211" x="125.05" y="90.4" transform="matrix(0.948 -0.3182 0.3182 0.948 -34.4445 65.2883)" class="st11" width="115.15" height="95.36"/>
		
			<rect id="Retângulo_212" x="110.15" y="92.83" transform="matrix(0.948 -0.3182 0.3182 0.948 -21.086 58.2359)" class="st8" width="115.15" height="1.66"/>
		
			<rect id="Retângulo_213" x="116.3" y="108.54" transform="matrix(0.948 -0.3182 0.3182 0.948 -26.5979 61.1457)" class="st4" width="115.15" height="6.9"/>
		
			<rect id="Retângulo_214" x="119.2" y="117.2" transform="matrix(0.948 -0.3182 0.3182 0.948 -29.2019 62.5208)" class="st4" width="115.15" height="6.9"/>
		<circle id="Elipse_8" class="st4" cx="158.9" cy="174.79" r="13.04"/>
	</g>
	<g id="Grupo_432" transform="translate(188.763 239.418)">
		
			<rect id="Retângulo_215" x="123.1" y="128.11" transform="matrix(0.127 -0.9919 0.9919 0.127 -35.1959 317.4952)" class="st1" width="79.35" height="101.27"/>
		
			<rect id="Retângulo_216" x="123.1" y="126.44" transform="matrix(0.127 -0.9919 0.9919 0.127 -33.5482 316.045)" class="st11" width="79.35" height="101.27"/>
		
			<rect id="Retângulo_217" x="125.53" y="139.77" transform="matrix(0.127 -0.9919 0.9919 0.127 -31.9146 263.367)" class="st4" width="16.26" height="20.09"/>
		
			<rect id="Retângulo_218" x="143.61" y="177.17" transform="matrix(0.127 -0.9919 0.9919 0.127 -77.2537 323.0026)" class="st6" width="2.52" height="56.44"/>
		
			<rect id="Retângulo_219" x="144.21" y="172.46" transform="matrix(0.127 -0.9919 0.9919 0.127 -72.0587 319.492)" class="st6" width="2.52" height="56.44"/>
		
			<rect id="Retângulo_220" x="144.82" y="167.75" transform="matrix(0.127 -0.9919 0.9919 0.127 -66.865 315.9797)" class="st6" width="2.52" height="56.44"/>
		
			<rect id="Retângulo_221" x="195.28" y="164.7" transform="matrix(0.127 -0.9919 0.9919 0.127 1.2034 354.4317)" class="st0" width="13.34" height="23.66"/>
		
			<rect id="Retângulo_222" x="198.19" y="168.01" transform="matrix(0.127 -0.9919 0.9919 0.127 -2.4466 356.8986)" class="st13" width="6.67" height="23.66"/>
		
			<rect id="Retângulo_223" x="166.87" y="87.92" transform="matrix(0.127 -0.9919 0.9919 0.127 8.9747 287.3017)" class="st8" width="1.66" height="101.27"/>
	</g>
	<g id="Grupo_433" transform="translate(254.182 222.033)">
		
			<rect id="Retângulo_224" x="149.08" y="162.64" transform="matrix(0.7912 -0.6116 0.6116 0.7912 -66.2436 175.2718)" class="st9" width="148.92" height="44"/>
		
			<rect id="Retângulo_225" x="147.8" y="160.98" transform="matrix(0.7912 -0.6116 0.6116 0.7912 -65.4957 174.1398)" class="st0" width="148.92" height="44"/>
		
			<rect id="Retângulo_226" x="154.53" y="180.68" transform="matrix(0.7912 -0.6116 0.6116 0.7912 -69.4142 180.0723)" class="st13" width="148.92" height="22"/>
		
			<rect id="Retângulo_227" x="165.62" y="221.02" transform="matrix(0.7912 -0.6116 0.6116 0.7912 -99.662 152.4786)" class="st3" width="15.68" height="2.34"/>
		
			<rect id="Retângulo_228" x="164.19" y="219.17" transform="matrix(0.7912 -0.6116 0.6116 0.7912 -98.8302 151.22)" class="st2" width="15.68" height="2.34"/>
		
			<rect id="Retângulo_229" x="264.68" y="144.44" transform="matrix(0.7912 -0.6116 0.6116 0.7912 -32.1432 197.073)" class="st3" width="15.68" height="2.34"/>
		
			<rect id="Retângulo_230" x="263.25" y="142.59" transform="matrix(0.7912 -0.6116 0.6116 0.7912 -31.3114 195.8145)" class="st2" width="15.68" height="2.34"/>
		<circle id="Elipse_9" class="st11" cx="165.34" cy="212.07" r="6.42"/>
		
			<rect id="Retângulo_231" x="170.11" y="192.5" transform="matrix(0.7912 -0.6116 0.6116 0.7912 -83.5748 153.058)" class="st11" width="24.47" height="12.83"/>
		
			<rect id="Retângulo_232" x="134.85" y="165.4" transform="matrix(0.7912 -0.6116 0.6116 0.7912 -57.9555 162.7236)" class="st8" width="148.92" height="1.66"/>
	</g>
	<g id="Grupo_443" transform="translate(130.352 266.639)">
		<g id="Grupo_434" transform="translate(0 1.062)">
			<path id="Caminho_493" class="st15" d="M338.07,195.34l-198.25-19.13c-1.26-0.12-2.54-0.03-3.78,0.25l-23.03-19.18
				c-1.19-0.99-2.68-1.53-4.23-1.53H93.25c-3.65-6.09-11.55-8.06-17.63-4.41c-6.09,3.65-8.07,11.55-4.41,17.63
				c3.65,6.09,11.55,8.06,17.63,4.41c1.81-1.09,3.33-2.6,4.41-4.41H104c1.55,0,3.04,0.54,4.23,1.53l18.25,15.2
				c-0.61,2.09-0.73,4.3-0.35,6.44l17.07,98.38c0.92,6.26,6.22,10.94,12.54,11.08h15.69l-15.46,19.61
				c-3.17,3.72-1.78,11.01,5.93,11.01h156.08c2.7-0.05,4.84-2.28,4.8-4.98c-0.05-2.63-2.17-4.75-4.8-4.8H173.07
				c-2.81,0-4.73-1.84-2.24-5.34l11.25-15.51h130.28c5.64-0.11,10.56-3.88,12.11-9.31l24.55-79.25
				C351.59,204.78,346.24,196.13,338.07,195.34z M146.84,216.71l-4.15-23.94l4.15,0.4L146.84,216.71z M166.38,285.4h-7.62
				l-2.14-12.39v-9.23h9.77L166.38,285.4z M166.38,254.01h-9.77v-22.89h9.77V254.01z M166.38,221.36h-9.77v-27.24l9.77,0.94V221.36z
				 M185.92,285.4h-9.77v-21.61h9.77V285.4z M185.92,254.02h-9.77v-22.89h9.77V254.02z M185.92,221.36h-9.77V196l9.77,0.94V221.36z
				 M205.46,285.4h-9.77v-21.62h9.77V285.4z M205.46,254.02h-9.77v-22.89h9.77V254.02z M205.46,221.36h-9.77v-23.48l9.77,0.94
				V221.36z M225,285.4h-9.77v-21.62H225V285.4z M225,254.02h-9.77v-22.89H225V254.02z M225,221.36h-9.77v-21.59l9.77,0.94V221.36z
				 M244.54,285.4h-9.77v-21.62h9.77V285.4z M244.54,254.02h-9.77v-22.89h9.77V254.02z M244.54,221.36h-9.77v-19.71l9.77,0.94
				V221.36z M264.08,285.4h-9.77v-21.62h9.77V285.4z M264.08,254.02h-9.77v-22.9h9.77V254.02z M264.08,221.36h-9.77v-17.82
				l9.77,0.94V221.36z M283.62,285.41h-9.77v-21.62h9.77L283.62,285.41z M283.62,254.02h-9.77v-22.9h9.77L283.62,254.02z
				 M283.62,221.37h-9.77v-15.93l9.77,0.94L283.62,221.37z M303.16,285.41h-9.77v-21.62h9.77V285.41z M303.16,254.03h-9.77v-22.9
				h9.77V254.03z M303.16,221.37h-9.77v-14.04l9.77,0.94V221.37z M312.93,274.8V263.8h3.41L312.93,274.8z M319.37,254.03h-6.44
				v-22.9h13.53L319.37,254.03z M329.48,221.37h-16.55v-12.16l19.73,1.9L329.48,221.37z"/>
			<path id="Caminho_494" class="st15" d="M182.3,335.19c-10.64,0-19.27,8.63-19.27,19.27s8.63,19.27,19.27,19.27
				c10.64,0,19.27-8.62,19.27-19.26C201.57,343.82,192.95,335.19,182.3,335.19C182.31,335.19,182.31,335.19,182.3,335.19z
				 M182.3,361.68c-3.99,0-7.23-3.24-7.22-7.23s3.24-7.23,7.23-7.22c3.99,0,7.22,3.24,7.22,7.23
				C189.53,358.45,186.3,361.68,182.3,361.68C182.31,361.68,182.31,361.68,182.3,361.68z"/>
			<path id="Caminho_495" class="st15" d="M290.04,335.19c-10.64,0-19.27,8.63-19.26,19.27c0,10.64,8.63,19.27,19.27,19.26
				c10.64,0,19.26-8.63,19.26-19.26C309.31,343.81,300.68,335.19,290.04,335.19z M290.04,361.68c-3.99,0-7.23-3.24-7.22-7.23
				c0-3.99,3.24-7.23,7.23-7.22c3.99,0,7.22,3.24,7.22,7.23C297.27,358.45,294.03,361.68,290.04,361.68
				C290.04,361.68,290.04,361.68,290.04,361.68z"/>
		</g>
		<g id="Grupo_442">
			<g id="Grupo_435">
				<path id="Caminho_496" class="st16" d="M338.07,194.65l-198.25-19.13c-1.26-0.12-2.54-0.03-3.78,0.25l-23.03-19.18
					c-1.19-0.99-2.68-1.53-4.23-1.53H93.25c-3.65-6.1-11.55-8.08-17.65-4.43c-6.1,3.65-8.08,11.55-4.43,17.65s11.55,8.08,17.65,4.43
					c1.82-1.09,3.34-2.61,4.43-4.43H104c1.55,0,3.04,0.54,4.23,1.53l18.25,15.2c-0.61,2.09-0.73,4.3-0.35,6.44l17.07,98.38
					c0.92,6.26,6.22,10.94,12.54,11.08h15.69l-15.46,19.61c-3.17,3.71-1.78,11.01,5.93,11.01h156.08c2.7-0.05,4.84-2.28,4.8-4.98
					c-0.05-2.63-2.17-4.75-4.8-4.8H173.07c-2.81,0-4.73-1.84-2.24-5.34l11.25-15.51h130.28c5.64-0.11,10.56-3.88,12.11-9.31
					l24.55-79.25C351.59,204.09,346.24,195.44,338.07,194.65z M146.84,216.02l-4.15-23.94l4.15,0.4V216.02z M166.38,284.71h-7.62
					l-2.14-12.39v-9.23h9.77L166.38,284.71z M166.38,253.33h-9.77v-22.89h9.77V253.33z M166.38,220.67h-9.77v-27.24l9.77,0.94
					V220.67z M185.92,284.71h-9.77v-21.61h9.77V284.71z M185.92,253.33h-9.77v-22.89h9.77V253.33z M185.92,220.67h-9.77v-25.36
					l9.77,0.94V220.67z M205.46,284.71h-9.77v-21.61h9.77V284.71z M205.46,253.33h-9.77v-22.89h9.77V253.33z M205.46,220.67h-9.77
					V197.2l9.77,0.94V220.67z M225,284.71h-9.77v-21.61H225V284.71z M225,253.33h-9.77v-22.89H225V253.33z M225,220.67h-9.77v-21.59
					l9.77,0.94V220.67z M244.54,284.71h-9.77v-21.61h9.77V284.71z M244.54,253.33h-9.77v-22.89h9.77V253.33z M244.54,220.67h-9.77
					v-19.7l9.77,0.94V220.67z M264.08,284.71h-9.77v-21.61h9.77V284.71z M264.08,253.33h-9.77v-22.89h9.77V253.33z M264.08,220.67
					h-9.77v-17.81l9.77,0.94V220.67z M283.62,284.71h-9.77v-21.61h9.77L283.62,284.71z M283.62,253.33h-9.77v-22.89h9.77
					L283.62,253.33z M283.62,220.67h-9.77v-15.93l9.77,0.94L283.62,220.67z M303.16,284.71h-9.77v-21.61h9.77V284.71z
					 M303.16,253.33h-9.77v-22.89h9.77V253.33z M303.16,220.67h-9.77v-14.04l9.77,0.94V220.67z M312.93,274.1V263.1h3.41
					L312.93,274.1z M319.37,253.33h-6.44v-22.89h13.53L319.37,253.33z M329.48,220.67h-16.55v-12.16l19.73,1.9L329.48,220.67z"/>
				<path id="Caminho_497" class="st6" d="M182.3,334.5c-10.64,0-19.27,8.63-19.27,19.27c0,10.64,8.63,19.27,19.27,19.27
					c10.64,0,19.27-8.63,19.27-19.27S192.95,334.5,182.3,334.5L182.3,334.5z M182.3,360.99c-3.99,0-7.23-3.24-7.22-7.23
					c0-3.99,3.24-7.23,7.23-7.22c3.99,0,7.22,3.23,7.22,7.22C189.53,357.76,186.3,360.99,182.3,360.99
					C182.31,360.99,182.31,360.99,182.3,360.99z"/>
				<path id="Caminho_498" class="st6" d="M290.04,334.5c-10.64,0-19.27,8.63-19.26,19.27c0,10.64,8.63,19.27,19.27,19.26
					c10.64,0,19.26-8.63,19.26-19.27C309.31,343.13,300.68,334.5,290.04,334.5z M290.04,360.99c-3.99,0-7.23-3.24-7.22-7.23
					c0-3.99,3.24-7.23,7.23-7.22c3.99,0,7.22,3.23,7.22,7.22C297.27,357.76,294.04,360.99,290.04,360.99
					C290.04,360.99,290.04,360.99,290.04,360.99z"/>
			</g>
			<g id="Grupo_436" transform="translate(0.006)">
				<rect id="Retângulo_233" x="215.23" y="253.33" class="st8" width="9.77" height="1.75"/>
				<rect id="Retângulo_234" x="195.69" y="284.71" class="st8" width="9.77" height="1.75"/>
				<rect id="Retângulo_235" x="215.23" y="220.67" class="st8" width="9.77" height="1.75"/>
				<rect id="Retângulo_236" x="215.23" y="284.71" class="st8" width="9.77" height="1.75"/>
				<rect id="Retângulo_237" x="234.77" y="220.67" class="st8" width="9.77" height="1.75"/>
				<rect id="Retângulo_238" x="234.77" y="284.71" class="st8" width="9.77" height="1.75"/>
				<rect id="Retângulo_239" x="234.77" y="253.33" class="st8" width="9.77" height="1.75"/>
				<path id="Caminho_499" class="st8" d="M126.13,186.48c-0.2,1.11-0.27,2.25-0.2,3.38c0.06-1.05,0.24-2.08,0.54-3.09
					L126.13,186.48z"/>
				<rect id="Retângulo_240" x="254.31" y="220.67" class="st8" width="9.77" height="1.75"/>
				<path id="Caminho_500" class="st8" d="M171.43,300.92l-15.46,19.61c-1.22,1.48-1.77,3.39-1.52,5.29
					c0.15-1.3,0.68-2.54,1.52-3.54l16.85-21.36H171.43z"/>
				<path id="Caminho_501" class="st8" d="M72.6,155.27c4.48-5.4,12.49-6.14,17.89-1.66c1.09,0.9,2.02,1.99,2.75,3.2h15.53
					c1.55,0,3.04,0.54,4.23,1.53l23.03,19.18c1.24-0.28,2.51-0.37,3.78-0.25l198.25,19.13c6.44,0.8,11.34,6.16,11.56,12.64
					c0.64-7.13-4.47-13.48-11.56-14.39l-198.25-19.13c-1.26-0.12-2.54-0.03-3.78,0.25l-23.03-19.18c-1.19-0.99-2.68-1.53-4.23-1.53
					H93.25c-3.64-6.01-11.46-7.92-17.47-4.28c-4.08,2.47-6.43,7.03-6.09,11.79C69.86,159.88,70.88,157.33,72.6,155.27z"/>
				<rect id="Retângulo_241" x="156.61" y="220.67" class="st8" width="9.77" height="1.75"/>
				<rect id="Retângulo_242" x="195.69" y="253.33" class="st8" width="9.77" height="1.75"/>
				<rect id="Retângulo_243" x="195.69" y="220.67" class="st8" width="9.77" height="1.75"/>
				<rect id="Retângulo_244" x="156.61" y="253.33" class="st8" width="9.77" height="1.75"/>
				<path id="Caminho_502" class="st8" d="M158.76,286.46h7.62v-1.75h-7.62l-2.14-12.39v1.75L158.76,286.46z"/>
				<rect id="Retângulo_245" x="254.31" y="284.71" class="st8" width="9.77" height="1.75"/>
				<path id="Caminho_503" class="st8" d="M319.37,255.08l7.09-22.89h-0.54l-6.54,21.14h-6.44v1.75L319.37,255.08z"/>
				<path id="Caminho_504" class="st8" d="M316.34,264.84h-0.54l-2.87,9.26v1.75L316.34,264.84z"/>
				<rect id="Retângulo_246" x="176.15" y="253.33" class="st8" width="9.77" height="1.75"/>
				<rect id="Retângulo_247" x="176.15" y="220.67" class="st8" width="9.77" height="1.75"/>
				<path id="Caminho_505" class="st8" d="M317.98,321.76H173.06c-1.32,0.17-2.6-0.49-3.24-1.65c-0.09,0.99,1.34,3.39,5.49,3.39
					h142.66c2.36,0,4.38,1.69,4.8,4.01c0.05-0.29,0.08-0.58,0.08-0.88C322.86,323.95,320.68,321.76,317.98,321.76z"/>
				<rect id="Retângulo_248" x="176.15" y="284.71" class="st8" width="9.77" height="1.75"/>
				<rect id="Retângulo_249" x="273.85" y="284.71" class="st8" width="9.77" height="1.75"/>
				<path id="Caminho_506" class="st8" d="M329.48,222.42l3.18-10.25l-0.53-0.05l-2.65,8.55h-16.55v1.75H329.48z"/>
				<rect id="Retângulo_250" x="273.85" y="220.67" class="st8" width="9.77" height="1.75"/>
				<rect id="Retângulo_251" x="254.31" y="253.33" class="st8" width="9.77" height="1.75"/>
				<rect id="Retângulo_252" x="273.85" y="253.33" class="st8" width="9.77" height="1.75"/>
				<rect id="Retângulo_253" x="293.39" y="284.71" class="st8" width="9.77" height="1.75"/>
				<rect id="Retângulo_254" x="293.39" y="253.33" class="st8" width="9.77" height="1.75"/>
				<rect id="Retângulo_255" x="293.39" y="220.67" class="st8" width="9.77" height="1.75"/>
			</g>
			<g id="Grupo_437" transform="translate(56.666 112.601)">
				<path id="Caminho_507" class="st8" d="M125.64,223.65c10.3,0,18.77,8.1,19.24,18.38c0.01-0.29,0.02-0.58,0.02-0.88
					c0-10.64-8.63-19.27-19.27-19.27s-19.27,8.63-19.27,19.27l0,0c0,0.29,0.01,0.59,0.02,0.88
					C106.86,231.75,115.34,223.65,125.64,223.65z"/>
				<path id="Caminho_508" class="st8" d="M125.64,250.14c3.99,0,7.23-3.23,7.23-7.22c0,0,0,0,0,0c0-0.29-0.02-0.58-0.06-0.88
					c-0.48,3.96-4.08,6.78-8.04,6.3c-3.3-0.4-5.9-3-6.3-6.3c-0.04,0.29-0.06,0.58-0.06,0.88
					C118.41,246.9,121.65,250.14,125.64,250.14L125.64,250.14z"/>
			</g>
			<g id="Grupo_438" transform="translate(122.042 112.601)">
				<path id="Caminho_509" class="st8" d="M168,223.65c10.3,0,18.77,8.1,19.25,18.38c0.01-0.29,0.02-0.58,0.02-0.88
					c0-10.64-8.63-19.27-19.27-19.27s-19.27,8.63-19.27,19.27l0,0c0,0.29,0.01,0.59,0.02,0.88
					C149.22,231.75,157.7,223.65,168,223.65z"/>
				<path id="Caminho_510" class="st8" d="M168,250.14c3.99,0,7.23-3.23,7.23-7.22c0,0,0,0,0,0c0-0.29-0.02-0.58-0.06-0.88
					c-0.48,3.96-4.08,6.78-8.04,6.3c-3.3-0.4-5.9-3-6.3-6.3c-0.04,0.29-0.06,0.58-0.06,0.88C160.77,246.9,164.01,250.14,168,250.14
					C168,250.14,168,250.14,168,250.14z"/>
			</g>
			<g id="Grupo_439" transform="translate(0.008 7.206)">
				<rect id="Retângulo_256" x="254.31" y="221.48" class="st12" width="9.77" height="1.75"/>
				<rect id="Retângulo_257" x="254.31" y="254.14" class="st12" width="9.77" height="1.75"/>
				<path id="Caminho_511" class="st12" d="M254.31,193.9v1.75l9.77,0.94v-1.75L254.31,193.9z"/>
				<path id="Caminho_512" class="st12" d="M234.77,192.01v1.75l9.77,0.94v-1.75L234.77,192.01z"/>
				<rect id="Retângulo_258" x="234.77" y="254.14" class="st12" width="9.77" height="1.75"/>
				<path id="Caminho_513" class="st12" d="M273.85,195.78v1.75l9.77,0.94v-1.75L273.85,195.78z"/>
				<rect id="Retângulo_259" x="234.77" y="221.48" class="st12" width="9.77" height="1.75"/>
				<path id="Caminho_514" class="st12" d="M293.39,197.67v1.75l9.77,0.94v-1.74L293.39,197.67z"/>
				<rect id="Retângulo_260" x="293.39" y="254.14" class="st12" width="9.77" height="1.75"/>
				<path id="Caminho_515" class="st12" d="M312.93,199.56v1.75l19.2,1.85l0.53-1.7L312.93,199.56z"/>
				<path id="Caminho_516" class="st12" d="M312.93,221.48v1.75h12.98l0.54-1.75H312.93z"/>
				<rect id="Retângulo_261" x="273.85" y="254.14" class="st12" width="9.77" height="1.75"/>
				<rect id="Retângulo_262" x="273.85" y="221.48" class="st12" width="9.77" height="1.75"/>
				<rect id="Retângulo_263" x="215.23" y="254.14" class="st12" width="9.77" height="1.75"/>
				<rect id="Retângulo_264" x="293.39" y="221.48" class="st12" width="9.77" height="1.75"/>
				<path id="Caminho_517" class="st12" d="M312.93,254.14v1.75h2.87l0.54-1.75H312.93z"/>
				<path id="Caminho_518" class="st12" d="M126.47,176.05l-18.25-15.2c-1.19-0.99-2.68-1.53-4.23-1.53H93.24
					c-3.64,6-11.46,7.92-17.46,4.28c-3.53-2.14-5.8-5.87-6.09-9.99c-0.53,6.99,4.7,13.08,11.69,13.62c4.8,0.37,9.4-2.02,11.86-6.15
					h10.75c1.55,0,3.04,0.54,4.23,1.53l17.91,14.92C126.22,177.03,126.33,176.54,126.47,176.05z"/>
				<path id="Caminho_519" class="st12" d="M142.68,183.13l0.31,1.78l3.84,0.37v-1.75L142.68,183.13z"/>
				<path id="Caminho_520" class="st12" d="M156.61,184.47v1.75l9.77,0.94v-1.75L156.61,184.47z"/>
				<rect id="Retângulo_265" x="156.61" y="254.14" class="st12" width="9.77" height="1.75"/>
				<rect id="Retângulo_266" x="156.61" y="221.48" class="st12" width="9.77" height="1.75"/>
				<path id="Caminho_521" class="st12" d="M349.02,203.4l-24.55,79.25c-1.55,5.43-6.47,9.2-12.11,9.31H182.08l-10.14,13.97
					c-1.19,1.51-1.92,3.32-2.12,5.24c0.22-0.7,0.56-1.36,1-1.94l11.25-15.51h130.28c5.64-0.11,10.56-3.88,12.11-9.31l24.55-79.25
					c0.5-1.64,0.71-3.35,0.6-5.06C349.56,201.21,349.36,202.33,349.02,203.4z"/>
				<path id="Caminho_522" class="st12" d="M317.98,322.58H161.9c-4.73,0-6.97-1.55-7.46-3.97c0.13,1.81,1.81,5.72,7.46,5.72h156.08
					c2.7,0,4.88-2.19,4.88-4.88c0,0,0,0,0,0c0-0.29-0.03-0.59-0.08-0.88C322.36,320.89,320.34,322.58,317.98,322.58z"/>
				<path id="Caminho_523" class="st12" d="M170.05,293.71l1.38-1.75h-15.69c-6.32-0.15-11.62-4.83-12.54-11.08l-17.07-98.38
					c-0.09-0.53-0.15-1.06-0.18-1.6c-0.07,1.12-0.01,2.25,0.18,3.35l17.07,98.38c0.92,6.26,6.22,10.94,12.54,11.08L170.05,293.71z"
					/>
				<path id="Caminho_524" class="st12" d="M215.23,190.13v1.75l9.77,0.94v-1.75L215.23,190.13z"/>
				<rect id="Retângulo_267" x="195.69" y="221.48" class="st12" width="9.77" height="1.75"/>
				<rect id="Retângulo_268" x="195.69" y="254.14" class="st12" width="9.77" height="1.75"/>
				<rect id="Retângulo_269" x="215.23" y="221.48" class="st12" width="9.77" height="1.75"/>
				<path id="Caminho_525" class="st12" d="M176.15,186.35v1.75l9.77,0.94v-1.75L176.15,186.35z"/>
				<rect id="Retângulo_270" x="176.15" y="221.48" class="st12" width="9.77" height="1.75"/>
				<path id="Caminho_526" class="st12" d="M195.69,188.24v1.75l9.77,0.94v-1.75L195.69,188.24z"/>
				<rect id="Retângulo_271" x="176.15" y="254.14" class="st12" width="9.77" height="1.75"/>
			</g>
			<g id="Grupo_440" transform="translate(56.666 118.845)">
				<path id="Caminho_527" class="st12" d="M125.64,225.94c-3.99,0-7.23,3.24-7.23,7.23c0,0.29,0.02,0.58,0.06,0.88
					c0.48-3.96,4.08-6.78,8.04-6.3c3.3,0.4,5.9,3,6.3,6.3c0.04-0.29,0.06-0.58,0.06-0.88C132.87,229.18,129.63,225.95,125.64,225.94
					z"/>
				<path id="Caminho_528" class="st12" d="M125.64,252.44c-10.3,0-18.78-8.1-19.24-18.39c-0.01,0.29-0.02,0.58-0.02,0.88
					c0,10.64,8.63,19.27,19.27,19.27s19.27-8.63,19.27-19.27c0-0.29-0.01-0.59-0.02-0.88C144.42,244.34,135.94,252.44,125.64,252.44
					z"/>
			</g>
			<g id="Grupo_441" transform="translate(122.042 118.845)">
				<path id="Caminho_529" class="st12" d="M168,225.94c-3.99,0-7.23,3.24-7.23,7.23c0,0.29,0.02,0.58,0.06,0.88
					c0.48-3.96,4.08-6.78,8.04-6.3c3.3,0.4,5.9,3,6.3,6.3c0.04-0.29,0.06-0.58,0.06-0.88C175.23,229.18,171.99,225.95,168,225.94
					C168,225.94,168,225.94,168,225.94z"/>
				<path id="Caminho_530" class="st12" d="M168,252.44c-10.3,0-18.78-8.1-19.24-18.39c-0.01,0.29-0.02,0.58-0.02,0.88
					c0,10.64,8.63,19.27,19.27,19.27s19.27-8.63,19.27-19.27c0-0.29-0.01-0.59-0.02-0.88C186.78,244.34,178.3,252.44,168,252.44z"/>
			</g>
		</g>
	</g>
	<circle id="Elipse_10" class="st1" cx="468.8" cy="355.57" r="7.64"/>
	<circle id="Elipse_11" class="st0" cx="468.8" cy="353.91" r="7.64"/>
	<path id="Caminho_531" class="st8" d="M468.8,347.93c3.9,0,7.17,2.94,7.59,6.81c0.03-0.27,0.05-0.55,0.05-0.82
		c0.01-4.22-3.41-7.65-7.63-7.65c-4.22-0.01-7.65,3.41-7.65,7.63c0,0.28,0.01,0.57,0.05,0.85
		C461.63,350.86,464.9,347.93,468.8,347.93z"/>
	<circle id="Elipse_12" class="st1" cx="590.08" cy="257.02" r="7.64"/>
	<circle id="Elipse_13" class="st0" cx="590.08" cy="255.36" r="7.64"/>
	<path id="Caminho_532" class="st8" d="M590.08,249.38c3.9,0,7.17,2.94,7.59,6.81c0.47-4.19-2.55-7.97-6.75-8.44
		c-4.19-0.47-7.97,2.55-8.44,6.75c-0.06,0.56-0.06,1.13,0,1.69C582.91,252.32,586.18,249.38,590.08,249.38z"/>
	<circle id="Elipse_14" class="st1" cx="290.8" cy="246.34" r="7.64"/>
	<circle id="Elipse_15" class="st0" cx="290.8" cy="244.68" r="7.64"/>
	<path id="Caminho_533" class="st8" d="M290.8,238.7c3.9,0,7.17,2.93,7.59,6.81c0.47-4.19-2.55-7.97-6.75-8.44
		c-4.19-0.47-7.97,2.55-8.44,6.75c-0.06,0.56-0.06,1.13,0,1.69C283.63,241.63,286.9,238.7,290.8,238.7z"/>
	<circle id="Elipse_16" class="st1" cx="542.18" cy="280.15" r="7.64"/>
	<circle id="Elipse_17" class="st4" cx="542.18" cy="278.49" r="7.64"/>
	<path id="Caminho_534" class="st8" d="M542.18,272.51c3.9,0,7.17,2.94,7.59,6.81c0.03-0.27,0.05-0.55,0.05-0.82
		c0-4.22-3.42-7.64-7.64-7.64c-4.22,0-7.64,3.42-7.64,7.64c0,0.28,0.02,0.55,0.05,0.82C535.01,275.44,538.28,272.51,542.18,272.51z"
		/>
	<circle id="Elipse_18" class="st1" cx="269.69" cy="398.39" r="7.64"/>
	<circle id="Elipse_19" class="st7" cx="269.69" cy="396.73" r="7.64"/>
	<path id="Caminho_535" class="st8" d="M269.69,390.75c3.9,0,7.17,2.93,7.59,6.81c0.47-4.19-2.55-7.97-6.75-8.44
		c-4.19-0.47-7.97,2.55-8.44,6.75c-0.06,0.56-0.06,1.13,0,1.69C262.52,393.69,265.8,390.75,269.69,390.75z"/>
	<circle id="Elipse_20" class="st1" cx="133" cy="218.36" r="7.64"/>
	<circle id="Elipse_21" class="st11" cx="133" cy="216.7" r="7.64"/>
	<path id="Caminho_536" class="st8" d="M133,210.72c3.9,0,7.17,2.93,7.59,6.81c0.46-4.19-2.56-7.97-6.76-8.43
		c-4.19-0.46-7.97,2.56-8.43,6.76c-0.06,0.56-0.06,1.12,0,1.68C125.83,213.65,129.1,210.72,133,210.72z"/>
	<circle id="Elipse_22" class="st1" cx="283.16" cy="191.61" r="7.64"/>
	<circle id="Elipse_23" class="st2" cx="283.16" cy="189.95" r="7.64"/>
	<path id="Caminho_537" class="st8" d="M283.16,183.97c3.9,0,7.17,2.94,7.6,6.81c0.03-0.27,0.05-0.55,0.05-0.82
		c0-4.22-3.42-7.64-7.64-7.64c-4.22,0-7.64,3.42-7.64,7.64l0,0c0,0.28,0.02,0.55,0.05,0.82
		C275.99,186.9,279.26,183.97,283.16,183.97z"/>
	<circle id="Elipse_24" class="st1" cx="187.91" cy="353.24" r="7.64"/>
	<circle id="Elipse_25" class="st2" cx="187.91" cy="351.58" r="7.64"/>
	<path id="Caminho_538" class="st8" d="M187.91,345.6c3.9,0,7.17,2.93,7.59,6.81c0.47-4.19-2.55-7.97-6.75-8.44
		c-4.19-0.47-7.97,2.55-8.44,6.75c-0.06,0.56-0.06,1.13,0,1.69C180.74,348.54,184.01,345.6,187.91,345.6z"/>
	<circle id="Elipse_26" class="st1" cx="559.5" cy="329.23" r="7.64"/>
	<circle id="Elipse_27" class="st2" cx="559.5" cy="327.57" r="7.64"/>
	<path id="Caminho_539" class="st8" d="M559.5,321.59c3.9,0,7.17,2.93,7.59,6.81c0.46-4.19-2.56-7.97-6.76-8.43
		c-4.19-0.46-7.97,2.56-8.43,6.76c-0.06,0.56-0.06,1.12,0,1.68C552.33,324.52,555.61,321.59,559.5,321.59z"/>
</g>
</svg>
